<?xml version="1.0" encoding="UTF-8" standalone="no"?>
<!-- Generator: Adobe Illustrator 16.0.0, SVG Export Plug-In . SVG Version: 6.00 Build 0)  -->

<svg
   xmlns:dc="http://purl.org/dc/elements/1.1/"
   xmlns:cc="http://creativecommons.org/ns#"
   xmlns:rdf="http://www.w3.org/1999/02/22-rdf-syntax-ns#"
   xmlns:svg="http://www.w3.org/2000/svg"
   xmlns="http://www.w3.org/2000/svg"
   xmlns:sodipodi="http://sodipodi.sourceforge.net/DTD/sodipodi-0.dtd"
   xmlns:inkscape="http://www.inkscape.org/namespaces/inkscape"
   version="1.1"
   id="Layer_1"
   x="0px"
   y="0px"
   width="5px"
   height="13px"
   viewBox="0 0 5 13"
   enable-background="new 0 0 5 13"
   xml:space="preserve"
   inkscape:version="0.91 r13725"
   sodipodi:docname="arrow-down.svg"><metadata
   id="metadata3353"><rdf:RDF><cc:Work
       rdf:about=""><dc:format>image/svg+xml</dc:format><dc:type
         rdf:resource="http://purl.org/dc/dcmitype/StillImage" /><dc:title></dc:title></cc:Work></rdf:RDF></metadata><defs
   id="defs3351" /><sodipodi:namedview
   pagecolor="#ffffff"
   bordercolor="#666666"
   borderopacity="1"
   objecttolerance="10"
   gridtolerance="10"
   guidetolerance="10"
   inkscape:pageopacity="0"
   inkscape:pageshadow="2"
   inkscape:window-width="1920"
   inkscape:window-height="1017"
   id="namedview3349"
   showgrid="false"
   inkscape:zoom="62.461538"
   inkscape:cx="5.3097291"
   inkscape:cy="6.5"
   inkscape:window-x="-8"
   inkscape:window-y="-8"
   inkscape:window-maximized="1"
   inkscape:current-layer="Layer_1"
   inkscape:snap-global="true" />
<g
   display="none"
   id="g3337">
	<g
   display="inline"
   id="g3339">
		<path
   fill="#9d498c"
   d="M0,10.005h2V0h1v10.005h2v0.487c-0.609,0.546-1.297,0.897-1.612,1.291C3.073,12.175,2.816,12.581,2.617,13    H2.325c-0.158-0.363-0.395-0.75-0.714-1.16C1.291,11.431,0.613,11.05,0,10.487V10.005z"
   id="path3341" />
	</g>
</g>
<g
   id="g3343">
	<g
   id="g3345">
		<path
   fill="#9d498c"
   d="M0,10h2V0h1v10h2v0.488c-0.609,0.547-1.297,0.899-1.611,1.293C3.073,12.174,2.816,12.58,2.617,13H2.325    c-0.158-0.363-0.395-0.752-0.714-1.162C1.291,11.428,0.613,11.046,0,10.482V10z"
   id="path3347" />
	</g>
</g>
<path
   style="fill:#e30000;fill-opacity:1"
   d="M 2.2269709,12.7853 C 2.0758396,12.478643 1.8471877,12.125437 1.6035075,11.822218 1.4646275,11.649405 1.2799121,11.48768 0.83017241,11.145136 0.63205049,10.994236 0.38778411,10.801952 0.28735825,10.717837 0.18693237,10.633723 0.08426919,10.548169 0.05921785,10.527719 l -0.0455479,-0.03718 0,-0.238987 0,-0.238987 0.99261085,0 0.9926108,0 0,-5.0030792 0,-5.00307886 0.4963054,0 0.4963055,0 0,5.00307886 0,5.0030792 1.0006157,0 1.0006158,0 0,0.237593 0,0.237594 -0.1240764,0.10294 C 4.6671727,10.75785 4.5545983,10.843478 4.2082512,11.093016 3.7730677,11.40656 3.645799,11.506898 3.5061515,11.646545 3.263998,11.888699 2.8886725,12.439174 2.685401,12.850308 l -0.069261,0.140086 -0.1445233,-9.69e-4 -0.1445232,-9.68e-4 -0.1001227,-0.203157 0,0 z"
   id="path3355"
   inkscape:connector-curvature="0" /><path
   style="fill:#aa0000;fill-opacity:1"
   d="M 2.2441278,12.807543 C 2.0489093,12.415103 1.7455407,11.962353 1.5153941,11.719976 1.3601621,11.556494 1.2410418,11.455148 0.83497537,11.141083 0.5157011,10.894146 0.35578093,10.766335 0.15855911,10.600483 l -0.13208128,-0.111074 0,-0.238424 0,-0.238423 0.99261087,0 0.9926108,0 0,-5.0030793 0,-5.00307881 0.4883005,0 0.4883005,0 0,5.00307881 0,5.0030793 1.0006158,0 1.0006158,0 0,0.236637 0,0.236638 -0.2201355,0.175905 c -0.1210745,0.09675 -0.3885647,0.29825 -0.5944228,0.447783 -0.205858,0.149534 -0.4406001,0.327189 -0.521649,0.394791 -0.2968609,0.247608 -0.7113289,0.819806 -0.9633636,1.329982 l -0.077114,0.156096 -0.1388805,0 -0.1388805,0 -0.090959,-0.182851 z"
   id="path3348"
   inkscape:connector-curvature="0" /><path
   style="fill:#f54a4a;fill-opacity:1"
   d="M 2.2250414,12.769988 C 2.0076604,12.353878 1.7348357,11.951445 1.5073892,11.711406 1.3695247,11.565909 1.2200162,11.439384 0.78694582,11.101714 0.60203202,10.957535 0.35528017,10.7605 0.23860837,10.663859 l -0.21213054,-0.175711 0,-0.237793 0,-0.237793 0.99261087,0 0.9926108,0 0,-5.0030793 0,-5.00307881 0.4883005,0 0.4883005,0 0,5.00307881 0,5.0030793 1.0006158,0 1.0006158,0 0,0.236264 0,0.236265 -0.2361454,0.185461 C 4.6235068,10.772556 4.3407328,10.98602 4.125,11.144916 3.5776283,11.548079 3.4663228,11.652245 3.1994902,12.011062 3.0188561,12.253966 2.8360255,12.547073 2.7117785,12.792943 L 2.612069,12.990256 2.4759852,12.990055 2.3399015,12.989853 2.2250414,12.769988 Z"
   id="path3350"
   inkscape:connector-curvature="0" /></svg>